<?xml version="1.0" encoding="UTF-8" standalone="no"?>
<!DOCTYPE svg PUBLIC "-//W3C//DTD SVG 1.1//EN" "http://www.w3.org/Graphics/SVG/1.1/DTD/svg11.dtd">
<svg width="100%" height="100%" viewBox="0 0 24 24" version="1.1" xmlns="http://www.w3.org/2000/svg" xmlns:xlink="http://www.w3.org/1999/xlink" xml:space="preserve" xmlns:serif="http://www.serif.com/" style="fill-rule:evenodd;clip-rule:evenodd;stroke-linejoin:round;stroke-miterlimit:2;">
    <g transform="matrix(1,0,0,1,-2,-2)">
        <g transform="matrix(1,0,0,1,1,1)">
            <path d="M25,2.988L25,23.012C25,24.109 24.109,25 23.012,25L2.988,25C1.891,25 1,24.109 1,23.012L1,2.988C1,1.891 1.891,1 2.988,1L23.012,1C24.109,1 25,1.891 25,2.988Z" style="fill:white;"/>
            <path d="M25,2.988L25,23.012C25,24.109 24.109,25 23.012,25L2.988,25C1.891,25 1,24.109 1,23.012L1,2.988C1,1.891 1.891,1 2.988,1L23.012,1C24.109,1 25,1.891 25,2.988ZM24.583,2.988C24.583,2.121 23.879,1.417 23.012,1.417L2.988,1.417C2.121,1.417 1.417,2.121 1.417,2.988L1.417,23.012C1.417,23.879 2.121,24.583 2.988,24.583L23.012,24.583C23.879,24.583 24.583,23.879 24.583,23.012L24.583,2.988Z"/>
        </g>
        <g transform="matrix(0.566426,0,0,0.566426,3.04173,16.8987)">
            <path d="M30.273,12.068L28.073,9.418C25.806,10.884 23.206,11.618 20.273,11.618C15.906,11.618 12.306,10.068 9.473,6.968C6.639,3.868 5.223,0.109 5.223,-4.307C5.223,-8.724 6.648,-12.499 9.498,-15.632C12.348,-18.766 15.939,-20.332 20.273,-20.332C24.606,-20.332 28.189,-18.766 31.023,-15.632C33.856,-12.499 35.273,-8.749 35.273,-4.382C35.273,0.118 34.006,3.834 31.473,6.768L35.423,11.568L30.273,12.068ZM27.573,2.518C29.173,0.618 29.973,-1.749 29.973,-4.582C29.973,-7.549 29.064,-10.107 27.248,-12.257C25.431,-14.407 23.114,-15.482 20.298,-15.482C17.481,-15.482 15.156,-14.324 13.323,-12.007C11.489,-9.691 10.573,-7.057 10.573,-4.107C10.573,-1.157 11.481,1.384 13.298,3.518C15.114,5.651 17.439,6.718 20.273,6.718C21.839,6.718 23.239,6.334 24.473,5.568L18.873,-0.832L24.173,-1.332L27.573,2.518Z" style="fill-rule:nonzero;stroke:black;stroke-width:1.77px;"/>
        </g>
        <g transform="matrix(0.566426,0,0,0.566426,1.48869,15.7826)">
            <path d="M30.273,12.068L28.073,9.418C25.806,10.884 23.206,11.618 20.273,11.618C15.906,11.618 12.306,10.068 9.473,6.968C6.639,3.868 5.223,0.109 5.223,-4.307C5.223,-8.724 6.648,-12.499 9.498,-15.632C12.348,-18.766 15.939,-20.332 20.273,-20.332C24.606,-20.332 28.189,-18.766 31.023,-15.632C33.856,-12.499 35.273,-8.749 35.273,-4.382C35.273,0.118 34.006,3.834 31.473,6.768L35.423,11.568L30.273,12.068ZM27.573,2.518C29.173,0.618 29.973,-1.749 29.973,-4.582C29.973,-7.549 29.064,-10.107 27.248,-12.257C25.431,-14.407 23.114,-15.482 20.298,-15.482C17.481,-15.482 15.156,-14.324 13.323,-12.007C11.489,-9.691 10.573,-7.057 10.573,-4.107C10.573,-1.157 11.481,1.384 13.298,3.518C15.114,5.651 17.439,6.718 20.273,6.718C21.839,6.718 23.239,6.334 24.473,5.568L18.873,-0.832L24.173,-1.332L27.573,2.518Z" style="fill:white;fill-rule:nonzero;stroke:black;stroke-width:1.77px;"/>
        </g>
    </g>
</svg>
